<svg xmlns="http://www.w3.org/2000/svg" width="32" height="32" viewBox="0 0 32 32"><title>icon-collapseTRY</title><path fill="#ffffff" opacity=".32" d="M16,2A14,14,0,1,0,30,16,14,14,0,0,0,16,2Z" style="fill:#fff;opacity:0.3199999928474426;isolation:isolate"/><path d="M16,2A14,14,0,1,0,30,16,14,14,0,0,0,16,2Zm0,26A12,12,0,1,1,28,16,12,12,0,0,1,16,28Z" style="fill:#fff;opacity:0.4000000059604645;isolation:isolate"/>

<path data-name="&lt;Transparent Rectangle&gt;" fill="none" width="32" height="32" />

<polygon points="11.6 15.9 18.2 9.3 19.1 10.2 13.5 15.9 19.1 21.5 18.2 22.4 11.6 15.9" style="fill:#fff;opacity:0.699999988079071;isolation:isolate"/>

<path data-name="&lt;Transparent Rectangle&gt;" fill="none"
 width="20.9" height="20.9" /></svg>